<?xml version="1.0" encoding="utf-8"?>
<!-- Generator: Adobe Illustrator 25.0.0, SVG Export Plug-In . SVG Version: 6.00 Build 0)  -->
<svg version="1.1" id="Capa_1" xmlns="http://www.w3.org/2000/svg" xmlns:xlink="http://www.w3.org/1999/xlink" x="0px" y="0px"
	 viewBox="0 0 1080 498.46" style="enable-background:new 0 0 1080 498.46;" xml:space="preserve">
<style type="text/css">
	.st0{clip-path:url(#SVGID_2_);fill:#FFFFFF;}
	.st1{clip-path:url(#SVGID_2_);fill:#25BA60;}
	.st2{fill:#FFFFFF;}
	.st3{fill:#25BA60;}
</style>
<g>
	<defs>
		<rect id="SVGID_1_" x="2126.09" width="1080" height="498.46"/>
	</defs>
	<clipPath id="SVGID_2_">
		<use xlink:href="#SVGID_1_"  style="overflow:visible;"/>
	</clipPath>
	<path class="st0" d="M2242.4,0h847.38c64.24,0,116.31,52.07,116.31,116.31v265.85c0,64.24-52.07,116.31-116.31,116.31H2242.4
		c-64.24,0-116.31-52.07-116.31-116.31V116.31C2126.09,52.07,2178.17,0,2242.4,0"/>
	<path class="st1" d="M2423.13,326.09c15.48,14.47,39.52,14.47,55,0c13.99-16.49,13.99-40.68,0-57.17c-15.48-14.47-39.52-14.47-55,0
		C2409.13,285.41,2409.13,309.6,2423.13,326.09 M2491.43,207.04h54.42c1.56,0,2.82,1.27,2.82,2.83v175.28
		c0,1.56-1.26,2.82-2.82,2.82h0h-54.42c-1.56,0-2.82-1.26-2.82-2.82v-13.83c-12.89,14.74-31.82,22.74-51.37,21.72
		c-23.27,0.38-45.49-9.64-60.61-27.32c-32.56-39.64-32.56-96.77,0-136.41c15.13-17.68,37.35-27.7,60.61-27.32
		c19.55-1.03,38.49,6.98,51.37,21.72v-13.82c0-1.56,1.26-2.83,2.82-2.83"/>
	<path class="st1" d="M2653.98,297.88c15.48,14.47,39.52,14.47,54.99,0c14-16.49,14-40.68,0-57.17c-15.47-14.47-39.52-14.47-54.99,0
		C2639.99,257.2,2639.99,281.39,2653.98,297.88 M2694.87,173.76c23.26-0.37,45.48,9.64,60.6,27.32c32.56,39.64,32.56,96.77,0,136.41
		c-15.12,17.68-37.34,27.69-60.6,27.32c-19.55,1.03-38.49-6.98-51.38-21.72v13.82c0,1.56-1.26,2.83-2.82,2.83h0h-54.42
		c-1.56,0-2.82-1.27-2.82-2.83v0V109.35c0-1.56,1.26-2.82,2.82-2.82h54.42c1.56,0,2.82,1.26,2.82,2.82v0v86.18
		c12.89-14.74,31.82-22.74,51.38-21.72"/>
	<path class="st1" d="M2893.52,336.59c-52.77,0-95.54-42.77-95.54-95.54c0-52.76,42.77-95.54,95.54-95.54
		c17.06-0.21,33.87,4.17,48.67,12.66c13.34,7.56,24.49,18.44,32.4,31.57c0.79,1.36,0.33,3.1-1.02,3.88c0,0,0,0-0.01,0l-46.52,26.85
		c-1.34,0.75-3.03,0.31-3.84-1c-6.49-10.2-18-16.07-30.06-15.34c-9.51-0.25-18.7,3.49-25.32,10.32c-13.54,15.14-13.54,38.03,0,53.17
		c6.63,6.83,15.81,10.57,25.32,10.32c12.23,0.91,23.92-5.17,30.19-15.7c0.8-1.29,2.48-1.72,3.79-0.95l46.52,26.82
		c1.36,0.78,1.82,2.51,1.05,3.87c-7.84,13.29-19.02,24.3-32.43,31.92c-14.8,8.49-31.6,12.87-48.67,12.66"/>
</g>
<path class="st2" d="M2283.7-100.21h-640c-121.5,0-220-98.5-220-220v-640c0-121.5,98.5-220,220-220h640c121.5,0,220,98.5,220,220
	v640C2503.7-198.71,2405.2-100.21,2283.7-100.21z"/>
<g>
	<path class="st3" d="M1674.72-548.6c18.63,17.43,47.59,17.43,66.22,0c16.85-19.85,16.85-48.99,0-68.84
		c-18.63-17.42-47.59-17.42-66.22,0C1657.87-597.58,1657.87-568.45,1674.72-548.6 M1756.97-691.94h65.52c1.88,0,3.4,1.52,3.4,3.4
		v211.05c0,1.88-1.52,3.4-3.4,3.4h0h-65.52c-1.88,0-3.4-1.52-3.4-3.4v-16.65c-15.52,17.75-38.32,27.39-61.86,26.15
		c-28.01,0.46-54.77-11.6-72.98-32.89c-39.21-47.73-39.21-116.52,0-164.25c18.21-21.29,44.97-33.35,72.98-32.89
		c23.54-1.24,46.34,8.4,61.86,26.15v-16.65c0-1.88,1.52-3.4,3.4-3.4"/>
	<path class="st3" d="M1952.7-582.57c18.63,17.43,47.59,17.43,66.22,0c16.85-19.85,16.85-48.99,0-68.84
		c-18.63-17.43-47.59-17.43-66.22,0C1935.85-631.55,1935.85-602.42,1952.7-582.57 M2001.93-732.02
		c28.01-0.45,54.76,11.61,72.97,32.89c39.21,47.73,39.21,116.52,0,164.26c-18.21,21.28-44.96,33.34-72.97,32.89
		c-23.54,1.24-46.34-8.4-61.86-26.15v16.65c0,1.88-1.52,3.4-3.4,3.4h0h-65.52c-1.88,0-3.4-1.52-3.4-3.4v0v-298.1
		c0-1.88,1.52-3.4,3.4-3.4h65.52c1.88,0,3.4,1.52,3.4,3.4v0v103.77c15.52-17.75,38.32-27.39,61.86-26.15"/>
	<path class="st3" d="M2241.13-535.95c-63.53,0-115.04-51.5-115.04-115.04c0-63.53,51.5-115.04,115.04-115.04
		c20.55-0.25,40.78,5.02,58.6,15.24c16.06,9.11,29.49,22.2,39.01,38.01c0.95,1.63,0.4,3.73-1.23,4.68c0,0,0,0-0.01,0l-56.02,32.33
		c-1.61,0.91-3.65,0.38-4.62-1.2c-7.81-12.28-21.67-19.35-36.19-18.47c-11.45-0.3-22.51,4.2-30.49,12.42
		c-16.3,18.23-16.3,45.79,0,64.02c7.98,8.22,19.04,12.72,30.49,12.42c14.72,1.1,28.8-6.23,36.35-18.9c0.96-1.56,2.98-2.07,4.56-1.14
		l56.02,32.29c1.63,0.94,2.2,3.03,1.26,4.66c-9.44,16-22.9,29.25-39.05,38.43c-17.82,10.23-38.05,15.49-58.6,15.25"/>
</g>
<path class="st2" d="M930,498.46H150c-82.84,0-150-67.16-150-150V150C0,67.16,67.16,0,150,0h780c82.84,0,150,67.16,150,150v198.46
	C1080,431.3,1012.84,498.46,930,498.46z"/>
<g>
	<path class="st3" d="M299.49,325.5c15.48,14.47,39.52,14.47,55,0c13.99-16.49,13.99-40.68,0-57.17c-15.48-14.47-39.52-14.47-55,0
		C285.5,284.82,285.5,309.01,299.49,325.5 M367.8,206.45h54.41c1.56,0,2.83,1.27,2.83,2.83v175.28c0,1.56-1.26,2.82-2.82,2.82h0
		H367.8c-1.56,0-2.83-1.26-2.83-2.82v-13.83c-12.89,14.74-31.82,22.74-51.37,21.72c-23.27,0.38-45.49-9.64-60.61-27.32
		c-32.56-39.64-32.56-96.77,0-136.41c15.13-17.68,37.35-27.7,60.61-27.32c19.55-1.03,38.49,6.98,51.37,21.72v-13.82
		c0-1.56,1.26-2.83,2.83-2.83"/>
	<path class="st3" d="M530.35,297.29c15.48,14.47,39.52,14.47,54.99,0c13.99-16.49,13.99-40.68,0-57.17
		c-15.47-14.47-39.52-14.47-54.99,0C516.36,256.6,516.36,280.8,530.35,297.29 M571.24,173.17c23.26-0.37,45.47,9.64,60.6,27.32
		c32.56,39.64,32.56,96.77,0,136.41c-15.12,17.68-37.34,27.69-60.6,27.32c-19.55,1.03-38.49-6.98-51.38-21.72v13.82
		c0,1.56-1.26,2.83-2.82,2.83h0h-54.41c-1.56,0-2.82-1.27-2.82-2.83v0V108.75c0-1.56,1.26-2.82,2.82-2.82h54.41
		c1.56,0,2.83,1.26,2.83,2.82v0v86.18c12.89-14.74,31.82-22.74,51.38-21.72"/>
	<path class="st3" d="M769.89,336c-52.77,0-95.54-42.77-95.54-95.54c0-52.76,42.77-95.54,95.54-95.54
		c17.06-0.21,33.87,4.17,48.67,12.66c13.34,7.56,24.49,18.44,32.4,31.57c0.79,1.36,0.33,3.1-1.02,3.88c0,0,0,0-0.01,0l-46.52,26.85
		c-1.34,0.75-3.04,0.31-3.84-1c-6.49-10.2-18-16.07-30.06-15.34c-9.51-0.25-18.7,3.49-25.32,10.32c-13.54,15.14-13.54,38.03,0,53.17
		c6.63,6.83,15.81,10.57,25.32,10.32c12.23,0.91,23.91-5.17,30.19-15.7c0.79-1.29,2.48-1.72,3.79-0.95l46.52,26.82
		c1.36,0.78,1.82,2.51,1.05,3.87c-7.84,13.29-19.02,24.3-32.43,31.92c-14.8,8.49-31.6,12.87-48.67,12.66"/>
</g>
</svg>
